PathFileType	4	(X/Y/Z)	DARI_DATA/Captury_Subj4_bilateral_squat01.trc
DataRate	CameraRate	NumFrames	NumMarkers	Units	OrigDataRate	OrigDataStartFrame	OrigNumFrames
60	60	8	47	mm	60.00239944458008	198	226
Frame#	Time		LeftUpLeg_		RightUpLeg_		LeftLeg_		RightLeg_		LeftFoot_		RightFoot_		LeftToeBase_		RightToeBase_		Knee_Lateral_r		Knee_Lateral_l		Ankle_Lateral_r		Ankle_Lateral_l		LeftArm_		LeftForeArm_		LeftHand_		LeftHandEE		RightArm_		RightForeArm_		RightHand_		RightHandEE		Spine_		Spine1_		Spine2_		Spine3_		Spine4_		Spine5_		Spine_x		Spine_y		Spine_z		RASI		LASI		RIPS		LIPS		RTHI		LTHI		RTIB		LTIB		RTOE		LTOE		RHEE		LHEE		RHipAngles		LHipAngles		RKneeAngles		LKneeAngles		RAnkleAngles		LAnkleAngles
			X1	Y1	Z1	X2	Y2	Z2	X3	Y3	Z3	X4	Y4	Z4	X5	Y5	Z5	X6	Y6	Z6	X7	Y7	Z7	X8	Y8	Z8	X9	Y9	Z9	X10	Y10	Z10	X11	Y11	Z11	X12	Y12	Z12	X13	Y13	Z13	X14	Y14	Z14	X15	Y15	Z15	X16	Y16	Z16	X17	Y17	Z17	X18	Y18	Z18	X19	Y19	Z19	X20	Y20	Z20	X21	Y21	Z21	X22	Y22	Z22	X23	Y23	Z23	X24	Y24	Z24	X25	Y25	Z25	X26	Y26	Z26	X27	Y27	Z27	X28	Y28	Z28	X29	Y29	Z29	X30	Y30	Z30	X31	Y31	Z31	X32	Y32	Z32	X33	Y33	Z33	X34	Y34	Z34	X35	Y35	Z35	X36	Y36	Z36	X37	Y37	Z37	X38	Y38	Z38	X39	Y39	Z39	X40	Y40	Z40	X41	Y41	Z41	X42	Y42	Z42	X43	Y43	Z43	X44	Y44	Z44	X45	Y45	Z45	X46	Y46	Z46	X47	Y47	Z47

198	3.28333	-115.50355	866.72620	56.28462	51.91686	865.75507	63.12572	-149.55554	461.84106	35.97173	88.26518	461.21979	40.01373	-183.50121	88.44406	56.22679	120.93879	87.59058	57.94684	-190.43057	26.47978	-58.99343	141.05032	29.68179	-57.83479	134.80609	462.81223	43.44899	-196.22499	463.37561	35.96077	166.04692	91.28307	79.87576	-230.09761	92.80264	74.63965	-164.13672	1366.54260	44.33470	-234.05223	1332.41736	-233.58098	-192.42929	1343.42029	-464.48932	-177.08388	1348.40991	-548.67914	101.19666	1359.46851	60.88605	162.08513	1333.66772	-220.03519	139.38034	1356.57300	-452.69812	139.55792	1365.92236	-537.90881	-31.26616	960.07117	60.12434	-29.97120	1057.48303	39.00700	-30.53805	1129.01514	53.17342	-32.96972	1210.61462	96.83441	-34.19823	1344.05017	115.70861	-28923081178180147754616411384381964288.00000	0.00000	-28923121742999355057957259278884536320.00000	15.69345	959.79877	62.04319	-30.62839	1006.18451	51.06268	-33.09631	969.15118	106.20216	113.62235	909.79395	-39.26888	-168.13530	911.42841	-50.78198	4.82077	937.63324	94.74312	-70.31461	938.06909	91.67295	133.91544	680.64453	60.18445	-196.83536	681.41168	49.80608	141.45093	295.09729	36.42442	-204.38199	239.67149	28.80321	145.95970	30.00224	-131.53006	-186.30988	22.17800	-132.61214	129.71878	28.97077	112.17407	-200.94162	32.29293	110.97025	-13.88400	2.37372	1.75881	-13.09573	1.62995	2.25702	-0.18694	0.13181	-0.03327	-0.15625	0.20525	-0.08545	8.67188	0.72926	9.84779	9.98695	-2.16623	11.93230
199	3.30000	-115.75924	866.77838	55.70233	51.63943	865.87506	63.06470	-149.79628	461.88788	35.47162	88.05098	461.33246	40.18228	-183.51579	88.49667	56.20675	120.88368	87.72049	58.18309	-190.04831	26.50612	-59.02254	140.99716	29.65646	-57.52044	134.58185	462.92566	43.75069	-196.46512	463.42960	35.28116	165.92168	91.45905	80.24795	-230.18358	92.82140	74.44601	-164.51976	1366.47986	44.44701	-233.77853	1332.44556	-233.64427	-192.09778	1343.41199	-464.54395	-176.71938	1348.89990	-548.69678	100.62209	1359.26318	60.99135	161.29196	1333.44763	-219.97591	139.12401	1355.72668	-452.75140	139.64386	1364.97681	-537.97156	-31.57782	960.15680	59.93581	-30.25032	1057.60779	38.94751	-30.86331	1129.13416	53.20076	-33.38893	1210.69470	96.95271	-34.66182	1344.12061	115.97430	-28923081178180147754616411384381964288.00000	0.00000	-28923121742999355057957259278884536320.00000	15.37569	959.90338	62.00087	-30.93328	1006.28308	50.94080	-33.55602	969.17133	106.02037	113.64368	910.08600	-39.07495	-168.07742	911.60638	-51.46535	4.41134	937.68701	94.63560	-70.71428	938.09247	91.33150	133.64474	680.76312	60.41618	-197.09453	681.47296	49.00963	141.34268	295.24078	36.74152	-204.41772	239.66272	28.46245	145.98958	29.93443	-131.21033	-185.68674	22.23330	-132.62906	129.45609	29.12984	112.47504	-201.09004	32.34480	110.90663	-13.78410	2.35026	1.74625	-12.98530	1.65932	2.21512	-0.16219	0.16374	-0.02290	-0.21890	0.15034	-0.07568	8.74025	0.60561	9.69423	9.90666	-2.13106	11.93719
200	3.31667	-115.85087	866.53052	55.74301	51.54244	865.95001	63.25869	-149.85715	461.65417	35.18007	87.98016	461.41577	40.27047	-183.72687	88.29224	56.19476	120.92007	87.81650	58.33948	-190.37279	26.36581	-59.06250	140.68988	29.61075	-57.35207	134.51056	463.01071	43.84433	-196.52589	463.19418	34.95754	165.94917	91.58655	80.41715	-230.40334	92.62479	74.40993	-164.97972	1366.19458	44.63302	-233.51384	1332.54968	-233.68509	-191.85089	1343.39844	-464.59354	-176.41721	1349.19434	-548.71558	100.05710	1359.04968	60.98488	160.70804	1333.21411	-219.98454	138.85808	1354.79053	-452.85623	139.60922	1364.53369	-538.01965	-31.85322	960.07117	60.04338	-30.65356	1057.52393	39.07339	-31.33182	1129.04077	53.35225	-33.87720	1210.57275	97.14857	-35.13007	1343.98230	116.26010	-28923081178180147754616411384381964288.00000	0.00000	-28923121742999355057957259278884536320.00000	15.09879	959.90839	62.15145	-31.28922	1006.19763	51.04395	-33.89095	969.08679	106.12514	113.55499	910.26941	-38.82896	-168.15707	911.24622	-51.47738	4.14735	937.67438	94.77855	-70.97587	937.93488	91.40563	133.55890	680.84357	60.56881	-197.17389	681.22699	48.85141	141.32333	295.33972	36.87293	-204.55798	239.44391	28.31944	145.56293	29.84475	-131.05011	-186.07144	22.15291	-132.67601	129.41284	29.24216	112.66152	-201.26463	32.11412	110.87939	-13.79753	2.24034	1.70536	-13.03449	1.76982	2.22314	-0.18580	0.18009	-0.01150	-0.30851	0.17387	-0.06809	8.78493	0.47861	9.53214	9.83195	-2.05172	11.91619
201	3.33333	-116.11663	866.42340	55.59373	51.27529	865.95776	63.14830	-150.06621	461.49750	35.93233	87.80279	461.41061	40.53255	-183.80727	88.06946	55.95610	120.87215	87.81824	58.50656	-190.61618	26.57875	-59.52470	140.34200	29.55740	-57.20811	134.33195	463.01843	44.11656	-196.73503	463.03146	35.68589	165.89407	91.60784	80.59550	-230.49768	92.31551	74.15588	-165.28726	1365.74622	44.76636	-233.40721	1332.60474	-233.71375	-191.56848	1343.60059	-464.58344	-176.59451	1348.98157	-548.81604	99.56440	1358.77039	61.14201	159.98067	1333.00378	-219.88435	138.63010	1354.19238	-452.83798	139.72871	1364.02246	-537.98767	-32.19108	960.02069	60.06791	-31.04425	1057.48816	39.21434	-31.74895	1128.98071	53.55824	-34.30532	1210.47290	97.40601	-35.55264	1343.86267	116.57893	-28923081178180147754616411384381964288.00000	0.00000	-28923121742999355057957259278884536320.00000	14.76054	959.89008	62.18689	-31.65999	1006.16235	51.14448	-34.24658	968.95898	106.16394	113.27831	910.49200	-38.85156	-168.43141	911.27570	-51.56542	3.81826	937.59418	94.77477	-71.30432	937.80316	91.38440	133.33087	680.86609	60.64511	-197.41479	681.09509	49.08597	141.20638	295.35468	37.10249	-204.67821	239.28511	28.46012	145.10770	29.80530	-130.91310	-186.44246	22.66557	-133.16209	129.29866	29.22719	112.82089	-201.20183	31.66920	110.45752	-13.64982	2.21539	1.70765	-12.81022	1.79605	2.21016	-0.11808	0.18364	-0.00923	-0.02977	0.16025	-0.06972	8.81430	0.36886	9.38668	9.76523	-1.91445	11.87418
202	3.35000	-116.33579	866.33545	55.27365	51.03059	865.98212	63.37936	-149.86169	461.37424	35.61319	87.60527	461.44925	40.58522	-183.75751	87.97623	55.93411	120.73217	87.86429	58.60825	-190.54640	26.52551	-59.56917	140.30649	29.55130	-57.06253	134.12260	463.05130	44.32197	-196.53082	462.86655	35.21630	165.68311	91.67186	80.83821	-230.50912	92.22785	73.97479	-165.70805	1365.52881	44.86222	-233.34163	1332.61279	-233.76312	-191.81241	1343.48743	-464.69440	-176.57739	1348.91333	-548.87732	99.05582	1358.77466	61.22466	159.57919	1332.90063	-219.76878	138.50360	1353.48901	-452.80127	139.48810	1363.96399	-537.87543	-32.49165	959.98853	60.09246	-31.33191	1057.47144	39.33291	-32.10026	1128.94421	53.74944	-34.77385	1210.38013	97.68563	-36.08815	1343.74133	117.02073	-28923081178180147754616411384381964288.00000	0.00000	-28923121742999355057957259278884536320.00000	14.45281	959.88940	62.36603	-31.96378	1006.13702	51.20443	-34.70530	968.89166	106.18796	113.33778	910.63458	-38.38321	-168.32898	911.22913	-52.02459	3.41901	937.56201	94.90144	-71.69212	937.72058	91.26373	133.08183	680.88678	61.00738	-197.44769	680.93311	48.55490	141.07010	295.41010	37.29856	-204.50006	239.16631	28.20119	145.20944	29.80652	-130.75850	-186.36040	22.65225	-133.20799	128.93535	29.26228	112.94495	-201.15237	31.55490	110.41362	-13.64676	2.17113	1.70763	-12.75300	1.78296	2.21498	-0.14977	0.20713	-0.01808	-0.07761	0.22384	-0.08274	8.83744	0.28525	9.26307	9.68705	-1.73110	11.82939
203	3.36667	-116.77088	866.17395	55.29267	50.59947	865.92413	63.31953	-150.08900	461.19229	35.69984	87.42407	461.40930	40.60751	-183.76370	87.76944	55.93156	120.75874	87.84460	58.66765	-190.92567	26.57008	-59.68258	140.07800	29.44350	-57.00154	133.94174	463.04196	44.32666	-196.75916	462.65930	35.33016	165.72058	91.68839	80.86927	-230.51358	91.95507	73.99213	-165.97417	1365.43445	44.95641	-233.43521	1332.78784	-233.74245	-192.17406	1343.08716	-464.74817	-176.82031	1348.82483	-548.88879	98.70736	1358.54956	61.54084	159.14661	1332.89746	-219.49103	138.28633	1353.15759	-452.57166	139.32619	1363.60559	-537.64844	-32.98432	959.87848	60.11197	-31.86653	1057.37756	39.41356	-32.61134	1128.84192	53.88618	-35.18933	1210.24194	97.89982	-36.35981	1343.58740	117.37125	-28923081178180147754616411384381964288.00000	0.00000	-28923121742999355057957259278884536320.00000	13.96125	959.80841	62.36342	-32.49011	1006.03113	51.24335	-35.18198	968.76056	106.21229	112.83024	910.65967	-38.45328	-168.84320	911.08008	-51.96197	2.95702	937.46008	94.89449	-72.15590	937.57220	91.29217	132.76802	680.88068	60.96093	-197.78629	680.72693	48.64347	140.97450	295.39789	37.31432	-204.60162	238.95491	28.24511	144.87067	29.67810	-130.70482	-187.00458	22.85891	-133.34431	128.95062	29.25757	113.02219	-200.91975	31.21450	110.34821	-13.60892	2.17322	1.71331	-12.72171	1.78724	2.22141	-0.14501	0.19983	-0.03046	-0.05505	0.22156	-0.09837	8.86560	0.22430	9.15358	9.58086	-1.54215	11.79466
204	3.38333	-116.78486	865.89441	55.02979	50.56790	865.99451	63.41937	-149.95856	460.90964	35.25615	87.36827	461.47903	40.67948	-183.66911	87.51675	55.97572	120.73724	87.91302	58.64796	-190.86128	26.40195	-59.68129	140.05765	29.46375	-56.99671	133.87988	463.10367	44.47726	-196.62801	462.36578	34.77029	165.66446	91.76785	80.91771	-230.46657	91.68779	73.91610	-166.39101	1365.17285	44.92586	-233.73314	1332.84717	-233.83913	-192.83885	1342.80310	-464.92508	-176.85332	1348.34583	-548.96106	98.17886	1358.47119	61.93858	158.86087	1332.87146	-219.04576	137.83588	1352.90491	-452.13116	139.31429	1363.50183	-537.18304	-33.21859	959.77118	60.30107	-32.22841	1057.31091	39.77465	-33.07797	1128.76172	54.32290	-35.76567	1210.14551	98.36604	-36.96562	1343.49438	117.83242	-28923081178180147754616411384381964288.00000	0.00000	-28923121742999355057957259278884536320.00000	13.72204	959.79926	62.65425	-32.80836	1005.95020	51.56659	-35.53592	968.51526	106.42192	112.91875	911.16229	-38.08873	-168.72505	910.99371	-52.20787	2.69738	937.33270	95.09682	-72.40764	937.28772	91.33172	132.71178	680.93890	61.15793	-197.73975	680.42993	48.13359	140.95105	295.47772	37.40420	-204.44270	238.65855	28.00394	144.90331	29.70555	-130.69652	-186.95697	22.75299	-133.34705	128.79649	29.32223	113.01827	-200.81189	30.92225	110.35542	-13.44595	2.04287	1.69183	-12.56900	1.89353	2.19926	-0.13417	0.21690	-0.04055	-0.15689	0.23141	-0.10489	8.90295	0.17160	9.06429	9.45631	-1.37974	11.77676
205	3.40000	-116.56982	865.81238	54.27901	50.76196	866.23358	63.06748	-149.99658	460.82599	34.97210	87.32220	461.67526	40.70718	-184.10413	87.48566	55.98505	120.68559	88.10083	58.50885	-191.32004	26.50756	-59.74258	140.03473	29.63572	-57.12298	133.82788	463.27048	44.58920	-196.66333	462.31693	34.35124	165.57414	91.95674	80.85625	-230.94916	91.67985	73.79536	-166.78688	1365.01819	44.92290	-233.95601	1332.88684	-233.90633	-193.32983	1342.25586	-465.06415	-177.12646	1348.27637	-549.02551	97.63323	1358.32458	62.52596	158.52502	1332.84802	-218.42416	137.48158	1352.81592	-451.51355	139.22238	1363.50037	-536.54956	-33.20738	959.84674	59.95456	-32.34639	1057.39478	39.66084	-33.33662	1128.76685	54.37960	-36.22244	1209.99280	98.61823	-37.58647	1343.24817	118.42572	-28923081178180147754616411384381964288.00000	0.00000	-28923121742999355057957259278884536320.00000	13.72737	959.96490	62.41963	-32.87028	1006.04553	51.32205	-35.65215	968.48505	106.08876	113.26204	911.75000	-38.19279	-168.34648	911.04120	-52.98320	2.67130	937.40497	94.78664	-72.42430	937.21594	90.84254	132.78091	681.11920	61.09973	-197.64645	680.40015	47.40915	140.92166	295.67950	37.42395	-204.66214	238.61696	27.79840	144.93762	29.87387	-130.81898	-187.38026	22.95522	-133.41115	128.64253	29.49984	112.88322	-201.34595	30.85355	110.29422	-13.26424	1.89416	1.66763	-12.36190	2.04205	2.16824	-0.05212	0.25375	-0.04693	-0.13723	0.24004	-0.10141	8.93831	0.11095	9.01062	9.33890	-1.24227	11.78180
